<svg width="40" height="39" viewBox="0 0 40 39" fill="none" xmlns="http://www.w3.org/2000/svg">
<path d="M35.8438 19.5C35.8438 15.298 34.1745 11.2681 31.2032 8.29678C28.2319 5.3255 24.202 3.65625 20 3.65625C15.798 3.65625 11.7681 5.3255 8.79678 8.29678C5.8255 11.2681 4.15625 15.298 4.15625 19.5C4.15625 23.702 5.8255 27.7319 8.79678 30.7032C11.7681 33.6745 15.798 35.3438 20 35.3438C24.202 35.3438 28.2319 33.6745 31.2032 30.7032C34.1745 27.7319 35.8438 23.702 35.8438 19.5ZM0.5 19.5C0.5 14.3283 2.55446 9.36838 6.21142 5.71142C9.86838 2.05446 14.8283 0 20 0C25.1717 0 30.1316 2.05446 33.7886 5.71142C37.4455 9.36838 39.5 14.3283 39.5 19.5C39.5 24.6717 37.4455 29.6316 33.7886 33.2886C30.1316 36.9455 25.1717 39 20 39C14.8283 39 9.86838 36.9455 6.21142 33.2886C2.55446 29.6316 0.5 24.6717 0.5 19.5ZM23.8619 24.7635L12.8703 28.991C11.3926 29.5623 9.93769 28.1074 10.509 26.6297L14.7365 15.6381C14.9879 14.9906 15.4906 14.4879 16.1381 14.2365L27.1297 10.009C28.6074 9.43769 30.0623 10.8926 29.491 12.3703L25.2635 23.3619C25.0197 24.0094 24.5094 24.5121 23.8619 24.7635ZM22.4375 19.5C22.4375 18.8535 22.1807 18.2335 21.7236 17.7764C21.2665 17.3193 20.6465 17.0625 20 17.0625C19.3535 17.0625 18.7335 17.3193 18.2764 17.7764C17.8193 18.2335 17.5625 18.8535 17.5625 19.5C17.5625 20.1465 17.8193 20.7665 18.2764 21.2236C18.7335 21.6807 19.3535 21.9375 20 21.9375C20.6465 21.9375 21.2665 21.6807 21.7236 21.2236C22.1807 20.7665 22.4375 20.1465 22.4375 19.5Z" fill="black"/>
</svg>
